<?xml version="1.0" encoding="utf-8"?>
<!-- Generator: Adobe Illustrator 19.0.0, SVG Export Plug-In . SVG Version: 6.00 Build 0)  -->
<svg version="1.1" id="Ebene_1" xmlns="http://www.w3.org/2000/svg" xmlns:xlink="http://www.w3.org/1999/xlink" x="0px" y="0px"
	 viewBox="-317 64 922 434" style="enable-background:new -317 64 922 434;" xml:space="preserve">
<style type="text/css">
	.st0{opacity:0.4;}
	.st1{fill:#7C7C7C;}
	.st2{fill:#6B6B6B;}
	.st3{opacity:0.8;}
	.st4{fill:#AA0536;}
	.st5{fill:#FFFFFF;}
	.st6{font-family:'SourceSansPro-ExtraLight';}
	.st7{font-size:23px;}
	.st8{fill:none;stroke:#FFFFFF;stroke-miterlimit:10;}
	.st9{font-size:82.3981px;}
</style>
<g id="XMLID_324_" class="st0">
	
		<image style="overflow:visible;opacity:0.75;enable-background:new    ;" width="141" height="123" id="XMLID_417_" xlink:href="F312DC63D238D464.png"  transform="matrix(1 0 0 1 280 190)">
	</image>
	<g id="XMLID_407_">
		<path id="XMLID_416_" class="st1" d="M332.7,275.9c-0.1,0.1-3.7-0.4-4.4,3.9c0.2,0.9,1.2,3.6,2.2,6.1c0.9,2.8-1.2,4.1-5.9,4.1H295
			c-4.1,0-6.6-3.1-6.6-7.1l0.1-26.6c-0.5-5.4,0.3-12.9,5.8-9.4l4,0.8c4.5-0.4,5.8-0.2,7.9-4.3l0.4-4.7c-0.4-5.3-2.2-10-6.5-8.8
			l-4.6,1.6c-3.2,0.2-6.2-1.2-6.8-5.1v-19.3c0-4.1,3.4-8,7.5-8h77c4.1,0,7.4,3.1,7.4,7.1v18c0,5.5,3.8,7.8,8.6,5.3
			c4.7-2.6,9.1-0.2,9.6,5.2l0.1,0.8c0.6,5.5-3.2,8.4-8.3,6.5l-0.7-0.3c-5.2-1.9-9.4,1-9.3,6.5l0.1,34.6c0,4.1-3.3,7.2-7.4,7.2h-22.7
			c-4.5,0-8,1.6-7.3-2.9c0.7-1.9,1.4-4.9,1.5-6.8c-0.4-2.1-0.5-3.8-4.3-4.6"/>
	</g>
</g>
<g id="XMLID_284_" class="st0">
	
		<image style="overflow:visible;opacity:0.75;enable-background:new    ;" width="122" height="140" id="XMLID_412_" xlink:href="F312DC63D238D465.png"  transform="matrix(1 0 0 1 386 79)">
	</image>
	<g id="XMLID_405_">
		<path id="XMLID_411_" class="st1" d="M478.4,196.6l-26.7-0.1c-5.4,0.5-11.9-1.4-9.4-5.8l1.1-2.3c3.4-4.1,0-8.3-4.6-9.6l-4.7-0.4
			c-8.1,0.8-7.8,2-8.8,6.5l1.6,4.6c0.2,3.2-1.2,6.2-5.2,6.8h-19.5c-4.1,0-8.2-3.4-8.2-7.5V112c0-4.1,3.3-7.4,7.4-7.4h18.1
			c5.5,0,7.9-3.8,5.3-8.6c-2.6-4.7-0.2-8.7,5.3-8.8l4-0.1c5.5-0.1,7.7,3.6,4.9,8.4l-0.3,0.6c-2.8,4.7-0.6,8.6,4.9,8.6l34.9-0.1
			c4.1,0,7.5,3.3,7.5,7.4v20.2c0,4.5-4.5,5.6-7.5,3.9l-3.6-1.9c-3.4-1.1-7.8-0.5-7.1,8.6l0.3,4.2l0.7,2.5c0.5,0.6,2.1,2,5.9,1.1
			c1.4-0.8,3.2-1.9,4.1-2.4c9-3.9,6.7,7.7,6.7,12.3l0.1,29.6C485.7,194.1,482.5,196.6,478.4,196.6z"/>
	</g>
</g>
<g id="XMLID_286_" class="st0">
	
		<image style="overflow:visible;opacity:0.75;enable-background:new    ;" width="137" height="123" id="XMLID_414_" xlink:href="F312DC63D238D463.png"  transform="matrix(1 0 0 1 80 286)">
	</image>
	<g id="XMLID_406_">
		<path id="XMLID_413_" class="st1" d="M129.6,295l-19.5-0.1c-4.1,0-8.2,3.4-8.2,7.5l-0.3,24.6c-0.1,5.5-3.1,8.2-6.8,5.9
			s-6.6-0.2-6.5,4.5s3.1,6.8,6.7,4.6c3.6-2.2,6.5,0.5,6.6,6l0.3,31.3c0,4.1,3.3,7.4,7.4,7.4h18.1c5.5,0,7.7,0,4.8-0.1
			c-2.8,0-3.4,0-1.2,0s5.4,0,7.3,0c1.8,0,7.8,0,13.3,0l34.9,0.1c4.1,0,7.5-3.3,7.5-7.4v-22.7c0-4.8,1.5-9.6-4.1-9.9L184,348
			c-2.9-0.3-5.9-3.9-4.9-8.2l0.2-0.8c0,0,0.7-1.8,0.7-1.9c0.1-0.1,1.1-1.3,3.7-1.7c1.9,0.6,5.1,1.7,6.9,2.4c3.7-0.2,3.5-2.3,3.5-7
			v-29.5c0-4.1-3.4-6.6-7.4-6.6l-26.8,0.1c-5.1,0.1-4.8,0.1-10.8,0.1h-5.8c-1.7,0,0.1,0-1.7,0H134"/>
	</g>
</g>
<g id="XMLID_287_" class="st0">
	
		<image style="overflow:visible;opacity:0.75;enable-background:new    ;" width="123" height="122" id="XMLID_404_" xlink:href="F312DC63D238D46C.png"  transform="matrix(1 0 0 1 180 100)">
	</image>
	<g id="XMLID_397_">
		<path id="XMLID_403_" class="st1" d="M280.2,147.6l0.1,44.9c0,4.1-3.3,7.5-7.4,7.5h-20.2c-3.2-1-4.1-4.4-3.1-7.2l0.5-4.7
			c-0.8-3.7-0.8-4.6-8.2-4.4l-4.1,0.6l-1,0.3c-0.6,0.5-3.2,1.8-2.2,4.4c0.6,1.2,1.4,3.9,1.8,6.1c0.6,6-7.2,4.7-11.9,4.7l-29.7-0.1
			c-4.1,0-6.6-3.2-6.6-7.3l0.1-26.7c-0.5-5.4,1.4-11.9,5.8-9.4l2.3,1.1c4.1,3.4,8.3,0,9.6-4.6l0.4-4.7c-0.8-8.1-2.8-7.9-6.3-8.4
			c-1.2-0.2-6.3,1.9-6.3,1.9c-1.7,0.1-5.5-1.8-5.2-6v-19.5c0-4.1,3.4-8.2,7.5-8.2h77c4.1,0,7.4,3.3,7.4,7.4"/>
	</g>
</g>
<g id="XMLID_288_" class="st0">
	
		<image style="overflow:visible;opacity:0.75;enable-background:new    ;" width="157" height="123" id="XMLID_396_" xlink:href="F312DC63D238D46F.png"  transform="matrix(1 0 0 1 71 97)">
	</image>
	<g id="XMLID_354_">
		<path id="XMLID_395_" class="st1" d="M150,106h27c5.5,0,10,4.4,10,9.9v19.6c0,2.8,3.8,8.5,8.4,5.5l0,0c3.7-1,8.7-1.9,9.9,2l0,0
			c0.9,2.6,1,7,0.2,9.6l0,0c-1.3,3.8-2.1,5-6.3,5l-4.5-2.3c-3.7-1.2-7.5,3.3-7.5,7.2v25c0,5.5-4.5,10.5-10,10.5h-30.8
			c-5.5,0-12.2,0-14.8,0s-9.3,0-14.8,0h-14.9c-3.4,0-6.7-3.3-6.7-6.7v-23.4c0-5.5-3.3-8.4-7.6-6.4s-7.7-0.9-7.6-6.4l0.1-4.3
			c0-5.5,3.4-8,7.6-5.5s7.5,0,7.5-5.5v-23.9c0-5.5,4.9-9.9,10.4-9.9H123c4.2,0,0.2,0,9.4,0"/>
	</g>
</g>
<g id="XMLID_289_">
	
		<image style="overflow:visible;opacity:0.75;enable-background:new    ;" width="138" height="123" id="XMLID_422_" xlink:href="F312DC63D238D46D.png"  transform="matrix(1 0 0 1 171 284)">
	</image>
	<g id="XMLID_400_">
		<path id="XMLID_421_" class="st2" d="M229.8,304.2c-0.1,2.3,0.8,3.3,4.1,4.7l3.3,0.7c0.1,0,1.2,0,1.3,0c4.8,0.5,9-1.6,8.8-6.8
			c0-0.3,0.1-0.9,0-1.1v-0.4c0-0.7-0.4-1.4-0.7-2c-1.2-2.9-3.5-6.2-0.8-6.2c1.6,0,0,0,1.6,0l31.8-0.2c3.8,0,6.9,3.1,6.9,6.9
			l0.3,30.8c0.4,2-1.9,6-6.3,5.1c-0.1,0-0.5,0-0.6,0l0,0c-2.9,0.1-5.3,0.2-5.3,0.2s-0.7,0.1-1.4,0.1c0,0,0,0-0.5,0.2
			c-0.9,0.3-1.6,0.7-2.2,1.2c-1.3,1.3-1.7,3.3-1.8,5.9l-0.2,3.2c-0.1,4.7,3.1,8.1,7.5,6.7c0.1,0,0.2-0.1,0.3-0.1l3.7-1.7
			c0.3-0.2,0.7-0.2,1.1-0.2c3.3,0.5,2.3,0.1,4.8,2.9c0.3,0.4,0.4,0.8,0.4,1.3v24.4c0,2.6-1.9,4.2-4.5,4.2h-78.2
			c-4.9,0-8.8-3.7-8.8-8.6v-21.7c0-5.5-3.4-8.3-7.6-6.3s-7.7-0.7-7.9-6c-0.2-5.3,3.2-7.4,7.6-4.6s7.9,0.5,7.9-5v-29.7
			c-0.7-4.8,4.4-9.4,7.8-9.2h28.3c2.6,0.8-0.1,8.5-0.2,8.4"/>
	</g>
</g>
<g id="XMLID_290_" class="st3">
</g>
<g id="XMLID_291_" class="st3">
	<path id="XMLID_335_" class="st4" d="M195.1,249.4"/>
</g>
<g id="XMLID_292_">
	
		<image style="overflow:visible;opacity:0.75;enable-background:new    ;" width="123" height="123" id="XMLID_415_" xlink:href="F312DC63D238D462.png"  transform="matrix(1 0 0 1 -94 194)">
	</image>
	<g id="XMLID_383_">
		<path id="XMLID_408_" class="st2" d="M-57.6,202.3h-19.9c-4.1,0-8.5,3.5-8.5,7.5v77c0,4.1,3.5,7.4,7.6,7.4h18.2
			c5.5,0,7.7,0,4.9-0.1c-2.8,0-3.4,0-1.2,0s5.4,0,7.3,0c1.8,0,7.8,0,13.3,0l34.7,0.1c4.1,0,7.4-3.3,7.4-7.4l0.1-25.1
			c0-4.5-2-6.2-5.2-4.3c-1,0.7-2.7,1.6-3.8,1.9c-3.9,0.6-5.7-2.3-6.5-6.2l0.5-6.7l0,0c0.1-0.1-0.3-6.5,5.2-6.1
			c1.8,0.2,4.6,1.1,6.3,2.1c2.3,1,3.2,0.6,3.2-4.1v-29.5c0-4.1-3.2-6.6-7.2-6.6l-26.6-0.1c-5.1,0.1-4.7-0.1-10.7-0.1h-5.8
			c-1.7,0,0.1,0-1.7,0h-7"/>
	</g>
</g>
<g id="XMLID_293_">
	
		<image style="overflow:visible;opacity:0.75;enable-background:new    ;" width="123" height="141" id="XMLID_424_" xlink:href="F312DC63D238D466.png"  transform="matrix(1 0 0 1 373 172)">
	</image>
	<g id="XMLID_402_">
		<path id="XMLID_423_" class="st2" d="M388.9,290l26.7-0.1c5.4,0.5,9.4-1,9.4-5.8l-0.2-4c-0.4-4.7-0.4-5.8,3.7-7.9l4.7-0.4
			c5-0.9,10,2.2,8.8,6.5l-1.6,4.6c-0.2,3.2,1.2,6.2,5.2,6.8H465c4.1,0,8-3.4,8-7.5v-77c0-4.1-3.1-7.4-7.2-7.4h-18
			c-5.5,0-7.9-3.8-5.3-8.6c2.6-4.8,0.2-8.7-5.3-8.8l-4-0.1c-5.5-0.1-7.7,3.6-4.9,8.4l0.3,0.6c2.8,4.7,0.6,8.6-4.9,8.6l-34.5-0.1
			c-4.1,0-7.2,3.3-7.2,7.4v20.2c0,4.5,4.1,4.9,7.2,3.2l4.4-0.8c4.3,0.9,5.5,2.7,5.5,8.2l-0.4,2.9c0,0-1,2.4-1.1,2.4
			c-0.5,0.6-1.4,2-4.5,1.8c-1.7-0.3-4.1-0.9-5.5-1.3c-9-0.5-5.9,7.3-5.9,12l-0.1,29.6C381.6,287.4,384.8,290,388.9,290z"/>
	</g>
</g>
<text id="XMLID_294_" transform="matrix(1 0 0 1 412.9764 248.9899)" class="st5 st6 st7">CSS</text>
<g id="XMLID_295_">
	
		<image style="overflow:visible;opacity:0.75;enable-background:new    ;" width="141" height="123" id="XMLID_392_" xlink:href="F312DC63D238D467.png"  transform="matrix(1 0 0 1 460 92)">
	</image>
	<g id="XMLID_376_">
		<path id="XMLID_390_" class="st2" d="M524,193h-27.1c-5.5,0-9.9-5-9.9-10.5v-25.4c0-4.3-0.8-13.1-8.4-9.1l0,0
			c-3.7,2-9.4,4.2-9.7,0.1l-0.3-4.9c-0.3-4.1,1.6-10.4,5.5-9.1l5.4,3.1c3.7,1.2,7.6-1.6,7.6-5.5v-20.8c0-5.5,4.4-9.9,9.9-9.9h30.8
			c5.5,0,12.2,0,14.8,0s9.3,0,14.8,0h14.9c3.4,0,5.8,2.7,5.8,6.1v15.4c0,5.5,0,13.2,0,17.1c0,3.9,0,11.6,0,17.1v25.8
			c0,5.5-4,10.5-9.5,10.5h-17.4c-4.2,0-0.2,0-9.4,0"/>
	</g>
</g>
<text id="XMLID_296_" transform="matrix(1 0 0 1 510.4302 156.3556)" class="st5 st6 st7">SASS</text>
<text id="XMLID_297_" transform="matrix(1 0 0 1 -80.5415 255.572)" class="st5 st6 st7">Laravel</text>
<text id="XMLID_298_" transform="matrix(1 0 0 1 227.0864 348.0643)" class="st5 st6 st7">JS</text>
<g id="XMLID_299_">
	
		<image style="overflow:visible;opacity:0.75;enable-background:new    ;" width="141" height="155" id="XMLID_410_" xlink:href="21B9DA6D6236B2C3.png"  transform="matrix(1 0 0 1 188 176)">
	</image>
	<g id="XMLID_380_">
		<path id="XMLID_409_" class="st2" d="M196.2,238.4l-0.1-30.8c0-3.7,2.2-6.9,5.9-6.9l29.8,0.4c4.3,0,7.9-3.1,7-6.8l-1-3.2
			c-1.9-3.7-0.2-6.4,3.9-6.7l4.8-0.3c4.1-0.3,5.9,2.5,5.5,6.5l-0.9,4.1c-1,2.2,1.6,6.4,6,6.4H278c5.5,0,10,4.6,10,10.1V225
			c0,5.5,3.7,8.4,8.3,6.5c4.5-1.9,8.9,0.7,9.6,6s-1.7,9.3-5.5,9.1s-8.2-0.7-9.6-1s-2.7,4-2.7,9.5v31.6c0,3.4-2.8,6.2-6.2,6.2
			c0,0,0.2,0.2-35.4,0c-5.2,0,0.2,6.3,0.5,8.8c0.1,0.9,0.1,0.9,0.1,0.9c0.3,1.4-0.3,3.6-1.4,4.8c-1.1,1.2-4.8,1.9-8.4,1.5
			c-3.6-0.4-6.6-2.3-6.6-4.2s0.2-4.1,0.6-5.1c0.3-0.9,0.8-2.8,1.2-4.2c0.3-1.4,0-2.3-0.7-2.4c-0.7,0-5.8,0.1-11.3,0.1h-14
			c-5.5,0-10.4-4.8-10.4-10.3V265"/>
	</g>
</g>
<g id="XMLID_300_">
	
		<image style="overflow:visible;opacity:0.75;enable-background:new    ;" width="123" height="140" id="XMLID_426_" xlink:href="21B9DA6D6236B2C1.png"  transform="matrix(1 0 0 1 -1 267)">
	</image>
	<g id="XMLID_387_">
		<path id="XMLID_425_" class="st2" d="M16.2,384.5c-4.1,0-8.2-3.4-8.2-7.5v-24.2c0-5.5,0-7.4,0-4.2s0,1.3,0-4.2v-1.5
			c0-5.5,0-7.9,0-5.3s0,0.2,0-5.3V300c0-4.1,3.3-7.4,7.4-7.4l34.1,0.1c5.5,0,8.3-4,6.1-8.9c-2.1-4.9,0.6-8.9,6-8.8
			c5.4,0.1,8.5,4.2,6.8,9s1.5,8.9,7,8.9h17c4.1,0,7.7,3.1,7.7,7.1v22.7c0,5.4,0.6,11.4-3.9,10.7l-5-1.9c-3.1,0.9-3.5,1.3-4.2,4.6
			l0.4,4.2l0.9,1.6c0.1,0.1,1.1,1.1,3.7,1.5c1.4-0.3,3.5-1.1,4.5-1.9c3.7,0.2,3.4,2.3,3.4,7V378c0,4.1-3.4,6.6-7.4,6.6"/>
	</g>
</g>
<g id="XMLID_301_">
	
		<image style="overflow:visible;opacity:0.75;enable-background:new    ;" width="123" height="139" id="XMLID_420_" xlink:href="21B9DA6D6236B2C7.png"  transform="matrix(1 0 0 1 -7 95)">
	</image>
	<g id="XMLID_384_">
		<path id="XMLID_419_" class="st2" d="M9.8,103.9c-4.1,0-8.2,3.4-8.2,7.5v3.1c0,5.5,0.2,12.2,0.2,14.8c0,2.6,0.2,9.3,0.2,14.8v1.5
			c0,5.5,0,7.9,0,5.3s0-0.2,0,5.3v32.3c0,4.1,3.1,7.4,7.2,7.4h27.9c5.5,0,8.3,3.8,6.4,8.5c-2,4.7,0.9,8.1,6.4,7.6l2.8-0.3
			c5.5-0.5,7.4-4.3,4.3-8.4c-3.1-4.1-1.2-7.5,4.3-7.5l24.6,0.1c4.1,0,7.2-3.3,7.2-7.4v-22.7c1-4.8-1.7-4.6-4.9-3.9l-4.5,0.7
			c-4.6-1.9-4.1-7.5-4-12.2l0.5-3.2c-0.1,0.2,1.1-3.8,4-3.1c2.8,0.7,1.7,0.4,2.8,0.7c0.7,0.4,2.2,1.1,3.5,1.6
			c3.7-0.2,2.7-1.8,2.7-6.4v-29.7c0-4.1-3.1-6.6-7.1-6.6"/>
	</g>
</g>
<text id="XMLID_302_" transform="matrix(1 0 0 1 12.8989 160.4323)" class="st5 st6 st7">MySQL</text>
<text id="XMLID_303_" transform="matrix(1 0 0 1 34.07 346.7606)" class="st5 st6 st7">PHP</text>
<g id="XMLID_304_">
	
		<image style="overflow:visible;opacity:0.75;enable-background:new    ;" width="139" height="122" id="XMLID_379_" xlink:href="21B9DA6D6236B2C2.png"  transform="matrix(1 0 0 1 -17 191)">
	</image>
	<g id="XMLID_371_">
		<path id="XMLID_378_" class="st2" d="M99.7,238.6l0.1,44.9c0,4.1-3.3,7.5-7.4,7.5H72.2c-3.2-1-3.8-4.3-2.8-7.1
			c0.1-1.2,0.1-3.3-0.1-4.5c-2.2-3.8-3.5-4.4-7.9-4.6l-3.7,0.7c0,0-0.1,0.1-1,0.4c-0.7,0.3-1.3,1.3-2,4c0,1.3,0.5,4.1,1.2,6.2
			c0.6,6-7.2,4.7-11.9,4.7l-29.7-0.1c-4.1,0-6.6-3.2-6.6-7.3l0.1-26.7c-0.1-6.5-9.9,4.1-13.5,1c-1-0.7-2.2-2.3-2.6-3.4
			c-0.4-4.7-0.4-1.7-0.2-4.8l1.1-5.9c3.9-6,15.2,3.6,15.2,1.6c0-1.2,0-28.4,0-28.4c0,0.1,0,4.3,0,0l0.1-9.6c0-4.1,3.4-8.2,7.5-8.2
			H37c5.5,0,8.8,3,7.4,6.7s1.9,6.6,7.4,6.5l2.7-0.1c5.5-0.1,8.1-3.1,5.9-6.7c-2.3-3.5,0.4-6.4,5.9-6.4h26.2c4.1,0,7.4,3.3,7.4,7.4"
			/>
	</g>
</g>
<g id="XMLID_305_">
	<g id="XMLID_306_">
		<polygon id="XMLID_307_" class="st8" points="48.5,238.4 69.5,226.3 69.5,262.5 48.5,274.6 		"/>
		<g id="XMLID_308_">
			<path id="XMLID_309_" class="st8" d="M32.5,229.3v36.2c3,4.5,11,9,16,9v-36.2C43.5,238.4,35.5,233.9,32.5,229.3z"/>
			<path id="XMLID_310_" class="st8" d="M46.4,244.2c-4.7-1-9.2-3.6-12.4-7.2"/>
		</g>
		<g id="XMLID_311_">
			<path id="XMLID_312_" class="st8" d="M36.3,253.9c0.9,0,1.6,0.8,1.6,1.8s-0.7,1.8-1.6,1.8c-0.9,0-1.6-0.8-1.6-1.8
				C34.8,254.7,35.5,253.9,36.3,253.9z"/>
			<path id="XMLID_313_" class="st8" d="M36.3,259.6c0.8,0,1.5,0.8,1.5,1.8s-0.7,1.8-1.5,1.8s-1.5-0.8-1.5-1.8
				C34.8,260.3,35.4,259.6,36.3,259.6L36.3,259.6z"/>
		</g>
		<g id="XMLID_314_">
			<g id="XMLID_315_">
				<path id="XMLID_316_" class="st8" d="M46.7,248.5c-4.7-1-9.2-3.6-12.4-7.2"/>
				<path id="XMLID_317_" class="st8" d="M48.5,238.4c-5.2,0-13.1-4.5-15.7-9l20.9-12.1l15.7,9L48.5,238.4z"/>
			</g>
			<path id="XMLID_318_" class="st8" d="M53.6,217.3l-21.1,12.1v36.2c3,4.5,10.7,9,15.9,9l21.1-12.1v-36.2L53.6,217.3z"/>
		</g>
	</g>
</g>
<text id="XMLID_319_" transform="matrix(1 0 0 1 214.1274 253.0143)" class="st5 st6 st7">HTML</text>
<g id="XMLID_320_" class="st0">
	
		<image style="overflow:visible;opacity:0.75;enable-background:new    ;" width="160" height="157" id="XMLID_377_" xlink:href="21B9DA6D6236B2DD.png"  transform="matrix(1 0 0 1 261 267)">
	</image>
	<g id="XMLID_346_">
		<path id="XMLID_373_" class="st1" d="M287.9,299.1c0-3.7,2.2-6.9,5.9-6.9l29.8,0.3c4.3,0,8.9-3,7-6.8l-1-3.2
			c-1.9-3.7-0.2-6.4,3.9-6.7l4.8-0.3c4.1-0.3,7.1,3.6,5.9,7.5l-1.7,3.3c-1.2,3.7,2.6,6.7,6.5,6.7h20.8c5.5,0,10.3,4,10.3,9.5v19.7
			c0,5.5,3.6,8,8.1,5.6s8.9,0.1,9.7,5.5l0.5,3.4c0.8,5.4-3,9.4-8.4,8.9h-0.1c-5.5-0.5-9.8,3.5-9.8,9v23.3c0,3.4-3.1,6.1-6.5,6.1
			h-23.7c-5.5,0-9.5,1.3-8.9,2.8s1.4,4.3,1.8,6.2s0.3,4.6-0.3,6.1c-0.6,1.5-3.6,2.5-6.8,2.2c-3.2-0.3-6-1.7-6.3-3.3
			c-0.3-1.6-0.1-4,0.4-5.5s1.7-4,2.7-5.6c1-1.5-2.6-2.8-8.1-2.8h-26.1c-5.5,0-10.1-4.4-10.1-9.9v-17.4c0-4.2-4.3-7.8-8.1-6l-2.6,0.8
			c-3.9,1.8-7.5-0.2-7.4-4.5l0.2-6.1c0.1-3.3,2.5-3.3,5.8-5l5.2,0.2c4.2,0.6,7-2.8,7-6.1L287.9,299.1z"/>
	</g>
</g>
<g id="XMLID_321_" class="st0">
	
		<image style="overflow:visible;opacity:0.75;enable-background:new    ;" width="140" height="122" id="XMLID_360_" xlink:href="21B9DA6D6236B2DE.png"  transform="matrix(1 0 0 1 281 377)">
	</image>
	<g id="XMLID_349_">
		<path id="XMLID_356_" class="st1" d="M289.3,449.2l0.1,19.6c0,4.1,3.5,8.2,7.6,8.2h77c4.1,0,7.4-3.4,7.4-7.5v-18.1
			c0-5.5,3.8-7.9,8.6-5.4c4.7,2.6,8.7,0.2,8.8-5.3l0.1-4c0.1-5.5-3.6-7.7-8.4-4.9l-0.6,0.3c-4.7,2.8-8.6,0.6-8.6-4.9l0.1-34.8
			c0-4.1-3.3-7.4-7.4-7.4h-22.7c-4.5,0-8.5,1.7-7.7,6.2l1.9,3.8c0.6,3.9-1.3,6.4-5.2,7.2l-6.7-0.5l0,0c-0.1-0.1-4.6-1-4.4-6.1
			c0.2-0.9,0.8-2.3,1.2-3.1c2.8-2.6-0.3-7.5-4.9-7.5H296c-4.1,0-6.6,3.3-6.6,7.3l-0.1,26.7c0.1,5.1-0.1,4.8-0.1,10.7v5.8
			c0,1.7,0-0.1,0,1.7v7.8"/>
	</g>
</g>
<g id="XMLID_322_" class="st0">
	
		<image style="overflow:visible;opacity:0.75;enable-background:new    ;" width="122" height="123" id="XMLID_362_" xlink:href="21B9DA6D6236B2DF.png"  transform="matrix(1 0 0 1 375 374)">
	</image>
	<g id="XMLID_351_">
		<path id="XMLID_361_" class="st1" d="M447.2,473.9h19.6c4.1,0,8.2-3.4,8.2-7.5v-77c0-4.1-3.4-7.4-7.5-7.4h-18.1
			c-5.5,0-7.7,0-4.9,0.1c2.8,0,3.4,0,1.2,0s-5.4,0-7.3,0c-1.8,0-7.8,0-13.3,0l-34.7-0.1c-4.1,0-7.4,3.3-7.4,7.4l-0.1,25.1
			c0,4.5,0,10.8,0,17.2c0,0,1.3-0.8,2.9-1.6c3.2-1.5,10.6-1.5,11.5,2.4l0.4,4.2v2.2c0,0,0,1.4-1.9,5.9c-2.6,1.7-7.6,2.1-11.1,0.8
			c-2.3-1-1.8,0.5-1.8,5.2v16.5c0,4.1,3.2,6.6,7.3,6.6l26.7-0.1c5.1-0.1,4.8-0.1,10.7-0.1h5.8c1.7,0-0.1,0,1.7,0h7.8"/>
	</g>
</g>
<text id="XMLID_2_" transform="matrix(1 0 0 1 -256.075 471.1393)" class="st5 st6 st9">Creative Puzzle</text>
</svg>
