<?xml version="1.0" encoding="utf-8"?>
<!-- Generator: Adobe Illustrator 19.0.0, SVG Export Plug-In . SVG Version: 6.00 Build 0)  -->
<svg version="1.1" id="Ebene_1" xmlns="http://www.w3.org/2000/svg" xmlns:xlink="http://www.w3.org/1999/xlink" x="0px" y="0px"
	 viewBox="0 0 841.9 595.3" style="enable-background:new 0 0 841.9 595.3;" xml:space="preserve">
<g id="XMLID_15_">
	<path id="XMLID_21_" d="M667.1,235.2c-2.5-6.9-5.7-18.2-12.9-21.7c-2.6-1.3-4.4-0.2-5.2-3.9c-0.3-1.6,0.8-3.4,0.6-5
		c-0.4-2.6-0.3-1.2-1.3-2.7c-1.5-2.3-3.1-1.8-2.1-5.6c1.1-3.9,3.9-8.2,5.6-11.9c3.7-8.2,9.6-14.3,18.8-15.8
		c7.8-1.3,15.9,0.9,22.3,5.4c7.7,5.6,9.8,12.8,11,21.7c0.3,2.6,3,7.2,1.5,9.4c-1.7,2.5-4.6,0.4-6.5,1.7c-3.8,2.5,0.4,7.3-0.3,10.7
		c-0.9,4.1-5,3.4-7.3,6.2c-1.6,2-3.5,5.3-4.7,7.3c-1,1.7-0.2,2.6-2.4,3.7c-1.2,0.6-3.6,0.7-4.9,0.6c-0.7-0.1-1.6,0.2-2.3,0
		c-0.6-0.2-0.1-1.8-1.1-2.1c-3.7-1.5-6.9,1.7-7.9,4.9C667.8,237.1,667.3,236.1,667.1,235.2z"/>
	<path id="XMLID_17_" d="M648.2,200.6c4.2,1.3,2.3,3.1,2.2,6.7c-0.1,3.9,0.3,3.1,3.3,4.9c8.2,4.6,11.4,14.2,14.5,22.8
		c1.1-2.5,5.4-3.8,7.8-3c1,0.3,1.6,2.1,1.9,2.2c1,0.3,2.6,0,3.7-0.1c4.3-0.6,3.4-2.4,5.2-5.5c0.5-0.9,2-2.1,2.7-3
		c0.6-1,0.7-2.2,1.5-3.1c2.7-3,6.1-1.5,6.5-6c0.2-2.9-2.5-5.9-0.7-8.8c2-3.4,4.8-0.5,7-2.4c2.2-2-0.2-4.7-0.6-7.5
		c-1.4-8.3-2-15.1-8.7-21.1c-5.5-4.9-13.1-7.5-20.5-7.2c-8.5,0.4-15.3,4.7-19.4,12.2C653.1,184,644.4,199,648.2,200.6
		C649,200.8,644.4,199,648.2,200.6z"/>
	<path id="XMLID_18_" d="M769.7,354.6c-1-4-5.5-6.5-8.7-8.6c-2.4-1.6-11.2-4.3-9.7-7.3c1.1,0.3,2.2,0.6,3.3,1.2
		c-4.3-3.4,0.9-7.9,2.3-11.3c-3.9-1.5-7.8,1.7-10.4,4.1c0.1-0.3,0-0.3-0.1-0.2c1.6-8.9-18-16.2-24-20.5
		c-1.9-1.4-18.7-16.4-21.1-11.3c-0.9-1.6-2.5-2.7-3.3-4.3c2.1-1.9,1.6,0.1,3.3,0.5c0.7,0.2,2,0.2,2.8,0.5c3.9,1.6,7.4,3.7,10.8,6.2
		c4.6,3.2,8.9,6.9,13.6,9.9c5.2,3.3,10.8,6.1,15.5,10.1c0.7,0.6,3.5,4.4,4.2,4.5c1.7,0.4,5-2.3,7.3-2.1c8.1,1-0.8,6.5-0.3,10.1
		c0.5,3.4,6.8,5.5,9.5,7.4c2.6,1.8,6,5.3,9.5,4.4C774.5,351,771.4,352.5,769.7,354.6z M768.7,349c1.9,1.8,1.1,2.1,2.4,1.1
		C770.2,349.8,769.4,349.4,768.7,349C769.3,349.6,769.5,349.4,768.7,349z"/>
	<path id="XMLID_4_" d="M751.1,339.8c5.2,0.9,17.1,7.4,19,12.6c0.6-0.7,3-2.1,3-3.2c-3.6,0.5-7.7-4-10.4-5.8s-8.3-3.3-8.6-7.1
		c-0.2-2.8,5.3-6.6,3.3-8.7c-2.2-2.3-8.2,1.3-9.7,2.5c0.2-4.2-8-8.5-10.9-10.3c-4.2-2.7-8.6-5-12.6-7.9c-4.4-3.1-8.5-6.6-13-9.5
		c-3.4-2.2-10.7-3.4-12.2-6.5"/>
	<path id="XMLID_16_" d="M627.9,493.6c-15.4,0-8-19.4-5.1-27.6c1.2-3.5,2.3-7.3,1.7-11.1c-0.4-2.6-1.7-4.7-1.8-7.4
		c0-3.3,1.4-6.3,2.1-9.5c0.9-3.9,0.8-7.7,1.1-11.7c0.4-7.3,1-14.8,2.9-21.9c1.2-4.5,8-11.7,4-16c-2.1-2.3-7.3-2.1-10.2-3.8
		c-4.3-2.5-9.8-7-12.8-10.9c-6.1,14-8.3,32.2-18.2,44.3c-4.6,5.7-14.1,10.5-21.3,11.4c-7,1-14.2-2.5-20.5-5.1
		c-8.9-3.7-17.7-9.4-26.8-12.3c-5-1.6-14.6-0.2-16.7-6.4c-0.5-1.6,1.2-4.5,0.7-5.5s-4.6-1.3-5.6-1.3c-4.4-0.2-8.9,1.5-12.7,3.6
		c-7.5,4-11.2,9.5-16.2,15.9c-2.8,3.7-12.1,7.3-14.4,2c-3-6.9,2.4-19.4,5.5-25.5c1.8-3.6,4.2-6.6,6.3-9.9c2.7-4.1,3.2-8.7,5.2-13
		c1.3-2.8,4-7.4,7-8.8c3.2-1.5,6.9,1,9.7,2.5c8.1,4.2,10.4,11.9,20.4,13c4.4,0.5,8.9,0.1,13.3,1c5.5,1.1,11.1,3.2,16.5,5
		c4.5,1.5,8.3,3.4,12.1,6.2c3,2.2,8.7,5.6,10.7,0.4c1.1-3-0.3-8.2-0.6-11.3c-0.4-4.9-1.2-10.1-0.7-15c0.4-3.7,1.6-7.4,1.8-11.1
		c0.3-4.3-1.6-7.2-2.2-11.3c-0.3-2.2,0.3-4.7-0.3-6.8c-0.7-2.7-2.8-3.9-4.4-6.1c-3.8-5.5,0.9-10.2-0.4-14.6c-0.9-2.9-4.2-5-4.6-8.3
		c-0.6-4.6,3.2-9.3,5.4-12.9c5.4-8.9,8.8-17.1,20.1-10.3c9.1-18.6,18.8-37.5,32.7-53c5.8-6.5,12.7-12,21-15.1
		c4.5-1.7,9.3-1,13.6-2.3c2.9-0.8,3-0.8,2.7-4.6c11.8,3,16.2,15.2,19.9,25.5c1.9,5.3,7.5,12,4.7,17.5c-1,2.1-2.8,3.2-3.1,5.6
		c-0.3,2.3,2.4,5.6,1.9,7.4c-0.9,3.7-10.3,1.7-10.3,7c0.1,3.9,6.5,4.7,9.4,3.8c2.6-0.8,3.8-3,6.7-3c3,0.1,6.1,2.6,8.3,4.3
		c2.3,1.8,13.3,9.3,9.5,11.7c-3.6-3.6-7.3-7.3-11.5-10.4c-4.7-3.4-6.3-3.4-11.1-1.1c-8.7,4.3-20.1-6.4-8.3-11.4c2.4-1,3.6-0.6,4-2.7
		c0.4-2.9-1.7-5.3-0.4-8.5c0.9-2.2,3.3-3.5,3.5-6c0.2-2.7-2.3-5.3-3.4-7.6c-4.5-9.8-6.5-24.5-17.9-29.1c-0.5,5.1-5.5,3.6-9.2,3.9
		c-4.4,0.4-8.6,1.9-12.6,3.8c-8.4,4.2-15,11-20.7,18.3c-11.8,14.9-20.5,32-28.8,49.1c-4-2.3-8.2-5.9-12.5-2.3
		c-3.3,2.7-5.1,7.9-7.3,11.5c-2.8,4.6-5.6,8.4-3.2,13.6c1.2,2.7,2.7,4.9,4.9,5.9c-2.4,4.1-4.6,8.7-1.7,13c1.5,2.1,3.7,3.3,4.6,5.8
		c1.3,3.5,0.3,7.6,1.4,11.3c2.7,9.1-0.9,17.2-0.4,26.5c0.4,6.8,5.9,29.4-8.7,23.8c-5.4-2.1-9.3-6.4-15-8.4
		c-6.9-2.4-14.3-5.3-21.7-5.7c-5.9-0.4-12.2,0.2-17.5-3c-4.8-2.9-7-7.9-12.2-10.6c-4.8-2.5-6.7-4-10.3,0.3
		c-4.3,5.1-4.5,11.6-7.9,17.1c-5.9,9.8-12.1,18.5-12.4,30.6c-0.1,3.5-0.6,4.1,2.6,4.8c2.2,0.5,5.3-0.8,6.9-2.2
		c4.2-3.7,6.1-9.4,10.8-13.1c3.7-2.9,7.9-5.5,12.4-7c3.4-1.2,13.6-3.5,16.2,0.5c1.6,2.4-1.8,4.9,0.7,7.8c2.6,3,8.7,2.1,12.1,2.9
		c18,4.1,36.2,24.4,55.5,15.6c12.4-5.7,16.4-13.5,21.1-26c3.1-8.3,4.9-18.1,9.3-25.9c2.5-4.4,2.6-1.9,5.9,1.4
		c3.2,3.2,7.7,7,11.7,8.9c4.4,2,9.8,1.3,11,7.1c1.1,5-4.4,10.9-5.6,15.8c-1.8,7.2-2.3,14.8-2.6,22.3c-0.1,3.1-0.2,6.1-0.8,9.1
		c-0.7,3.2-2.4,6.5-2.3,9.8c0.1,3.3,1.8,6.1,1.9,9.5c0.1,3.5-0.9,6.8-2.1,10c-1.3,3.6-6.2,13.3-4.3,17c1.5,3,14,1.3,17.6,1.3
		c7.8,0,15.5,1.4,23.2,1.3c3.6,0,7.1-0.4,10.6-1.2c2.5-0.6,6.3-3.8,6.9,0.1c-9.4,3.9-19.1,4.5-29.1,3.3c-5.2-0.6-10.5-0.9-15.7-0.9
		c-4.2,0-8.8,0.7-12.9-0.3c2.4,8.7,21.6,0.1,27.4,1.7c7.4,2.1,21.4,4.6,28.2-0.8c10.7-8.5-14.6-11.1-18.1-12.3
		c-8.6-2.8-16.9-10.9-12.7-20.7c1.8-4.2,4.4-6.8,5.2-11.5c1.2-6.6,1.6-13.4,2.2-20.1c0.3-3.1,0.2-7.1,1.3-10.1
		c1.3-3.5,4.5-6,5.9-9.6c3.2-8.2,3.6-18.2,1.9-26.8c-1.4-7.1-7.5-12.7-11.1-18.9c-2.7-4.7-4.5-9.2-6.2-14.2
		c-1.2-3.4-4.2-11.6-7.8-13.5c-3.1-1.7-7.1,0.4-7.2-4.2c0-1.6,1.3-3.6,1.2-5.6c0-0.7-0.2-1.5-0.2-2.3l0,0c5.6,0,6.9-12.7,13.9-13.4
		c2-0.2,12.4-2.1,11.4,0.5c5.7,0.5,11.2,2.1,16.8,3.5c-1.6,3.1-5.8,8.7-4.4,12.2c0.9,2.1,5.7,3.9,7.7,3.1c2.3-1,2.8-4.6,3.6-6.7
		c2.1-5.9,3.2-6.7,9.2-5.8c5.2,0.7,11.4,0.9,15.4,4.5c4.3,3.9,6.9,9.4,13.3,10.2c2.7,0.3,4.2-1.5,6.4-1.6c2.6-0.1,4.8,2,6.8,3.6
		c2.5,1.8,4.9,4.2,7.8,5.4c4.2,1.8,2.3-1.4,5.6-1.6c0.5,0,5,5.1,5.3,6c1.3-1.7,2-3.9,3.9-1.6c-0.5,0.7-2.8,4.8-4.1,4.7
		c-2.2-0.2-1.5-2.9-3-4c-1.8-1.3-3.6-0.2-5.6-0.4c-1-0.1-3.6-1.4-4.9-2.2c-3.4-2-7.7-7.3-11.5-7.8c-0.1,0-1.8,1.4-2.3,1.4
		c-2,0.4-4.2,0.4-6.1-0.1c-3-0.7-5.5-2.4-7.6-4.5c-4.9-4.6-6.3-7.8-13.2-9c-2.7-0.5-6.1-1.6-8.9-1.4c-3.3,0.2-3.1,1.2-4.3,4.6
		c-2.1,6.2-5,11.2-12.3,7c-6.2-3.6-2.8-9.7-0.1-14.7c-5.9-1.5-11.7-2.7-17.8-3c0.2-0.2,0.4-0.4,0.5-0.7c-5.7,1.1-9.1-0.5-12.8,4.6
		c-1.5,2.1-5.5,6.2-6.4,8.4c-0.9,2.2,1,4.7-1.2,7.3c2.8,1.1,5.2,0.6,7.5,2.4c1.7,1.4,2.3,3.6,3.3,5.4c1.2,2.3,4.1,5.2,4.8,7.7
		c0.3,1-0.3,2.6,0.3,4.4c1.3,4,3.8,7.8,5.9,11.4c3.5,5.9,9,10.8,10.5,17.7c1.7,8.3,1.2,16.6-0.8,24.8c-1.2,4.8-3.8,7.5-6,11.7
		c-1.8,3.4-1.8,7.6-2.2,11.4c-0.6,5.6-1.1,11.2-1.8,16.8c-0.7,5.6-2.5,8.9-5,13.8c-4.9,9.5,2.8,16.8,11.6,19.4
		c6.2,1.8,21.8,0.7,20.8,11.1c-0.9,8.7-16.3,8.1-22.5,8c-4.9-0.1-9-2.5-13.7-2.8C639.4,490.5,633.7,493.6,627.9,493.6z"/>
	<path id="XMLID_2_" d="M697.1,287.2c-4.3-4.3-8.7-9-14-12.1c-6.5-3.7-7,0.8-12.9,1.5c-4.3,0.5-11.5-2.9-8.1-7.9
		c1.2-1.7,3.2-2.2,4.9-2.9c3.2-1.3,3.5-0.5,3.5-3.4c0-2.7-1.6-4.8-0.6-7.7c0.7-2,3-3.4,3.5-5.5c1-4.3-3.6-10.1-5.2-14.2
		c-3.5-9.3-7.3-22.1-18.1-25.3c0,6.8-11.1,4.4-16.1,6.1c-8.9,3.1-16.2,9.1-22.4,16.1c-13.7,15.6-23.2,34.4-32.2,52.9
		c-4.4-2.5-8.5-5.5-13-1.4c-3.6,3.3-5.8,9.2-8.3,13.3c-2.5,4.1-4.3,7.7-2.5,12.2c0.3,0.8,4.1,7.7,5.3,5.6c-2.3,4-4.7,8.8-2.3,13.2
		c2.3,4.1,5.2,5,5.5,10.2c0.5,7.9,3,13.5,1.6,21.6c-1.1,6.6-1.2,11.9-0.6,18.6c0.3,4,2.6,12.1-0.5,15.4c-2.3,2.5-6.1,1.5-8.8,0.1
		c-4.5-2.4-7.7-5.6-12.7-7.4c-9.1-3.3-17.9-5.8-27.5-6.3c-4.2-0.2-8.5-0.4-12.3-2.7c-4.2-2.5-6.1-7-10.3-9.6c-2-1.2-6.9-4.5-9.3-4.1
		c-3.3,0.6-6.4,6.2-7.7,9c-1.6,3.5-2,7.4-3.8,10.7c-2.1,4-5.3,7.4-7.4,11.5s-3.7,8.6-4.8,13.1c-0.6,2.6-2.7,10.8-0.7,13.1
		c1.8,2.2,8.6,0,10.4-1.4c3.1-2.4,4.6-7.1,7.4-10c5.8-6.2,15.5-12.3,24.3-11.9c1.4,0.1,4.9,0.1,5.9,1.3c1.5,1.7,0,1.9-0.1,4
		c0,4,3.2,5.4,6.8,6.3c4.7,1.2,8.6,1.2,13,3.2c11.5,5.2,22.9,11.8,35.1,15.1c7.8,2.1,14.6-0.9,21.4-4.7c8.8-4.9,12-13.7,15.4-22.7
		c1.2-3.1,10.5-29,10.8-28.8c1.3,0.7,3.8,4.6,5.2,5.7c2.4,2,5.2,4.7,7.9,6.3c3.9,2.3,10,1.5,11.9,6.1c1.5,3.9-1.1,6.3-2.8,9.5
		c-2.3,4.5-3.1,9.8-3.8,14.7c-0.7,5.5-1,10.9-1.2,16.4c-0.3,5-1.9,9.3-2.6,14.1c-0.7,4.6,1.4,8.2,1.5,12.7c0.1,4.9-2,9.1-3.6,13.6
		s-5.8,14.7,0.7,16.1c7,1.5,15.4-0.4,22.6,0.1c11.1,0.8,22.3,2.2,32.9-2.4c-8.6,3.7-18,4.4-27.2,3.3c-10.4-1.2-21.1-0.4-31.4-2.2
		c0.4,13.3,20.7,3.1,27.3,4.4c9,1.8,16.8,3.7,26.1,1.1c10.2-2.8,7.5-12-2-13.8c-9.9-1.8-23.9-2.9-25-15.8c-0.4-5.2,3-7.7,4.8-12.1
		c2.1-4.9,2.1-11,2.7-16.2c0.5-4.9,0.9-9.9,1.5-14.9c0.6-4.4,2.1-6,4.4-9.7c5.3-8.5,6-20.8,4.2-30.6c-1.2-6.7-5.8-10.9-9.3-16.6
		c-2.5-4-5.1-8.2-6.8-12.7c-0.6-1.6-0.8-3.1-1.3-4.7c-0.7-2.6-2.6-5.2-4.1-8c-2.9-5.3-3.2-5.6-8.1-6.9c-3.2-0.8-2.4-0.8-2.1-3.2
		c0.1-0.9,2.3-6.3-0.6-6.1c5.6-0.5,6.7-10.7,11.4-12.9c2.1-1,4.7-0.2,6.9-0.4c1.4-0.1,4.6-1.5,5.9-1.2c-1.7,2.9,3.8,2,6.4,2.5
		c3.3,0.6,6.5,1.5,9.8,2.3c-2.2,4.4-6.7,10.2-1.7,14c4.3,3.3,8.1,2.2,10.1-2.2c1.2-2.6,1.4-7.8,4.3-9.1c2.7-1.3,9.5,1.1,12.3,1.7
		c6.2,1.1,7.9,4.2,12.2,8.4c4.6,4.5,8.5,5.4,14.7,4.4c2.2-0.4,2.3-0.8,4.8,0.8c2.1,1.3,4,3,6,4.4c3.6,2.6,8.8,6.4,11.3,0.9
		c-0.9,0.9-1.8,1.9-2.6,2.9c2.1,0,1.7-0.9,3.6,0.1c1.4,0.7,1.4,2.1,2.4,2.8c0.5,0.4,0,1.3,0.7,1.5c0.6,0.2,3.2-4.1,3.3-4.2"/>
	<path id="XMLID_14_" d="M776.4,356.7c-0.7,0-7.5-2.5-7.7-3.6c-0.3-1.3,3.1-5.3,4.1-5.3c0.4,0,6.3,4,6.6,4.5
		C780.2,353.9,778.6,356.7,776.4,356.7z"/>
	<path id="XMLID_52_" d="M778.5,353.2c-3-1.6-6.5-6.7-8.4-0.7C772.5,353.3,777.6,358.5,778.5,353.2
		C776,351.8,777.6,358.7,778.5,353.2z"/>
	<path id="XMLID_12_" d="M772.4,348.8L772.4,348.8L772.4,348.8z"/>
	<path id="XMLID_88_" d="M772.4,348.8L772.4,348.8L772.4,348.8z"/>
	<path id="XMLID_11_" d="M679.8,483.7L679.8,483.7L679.8,483.7z"/>
	<path id="XMLID_90_" d="M679.8,483.7L679.8,483.7L679.8,483.7z"/>
	<path id="XMLID_1_" d="M85.4,484.4L85.4,484.4L85.4,484.4z"/>
	<path id="XMLID_91_" d="M85.4,484.4L85.4,484.4L85.4,484.4z"/>
	<path id="XMLID_7_" d="M102.1,493.4c-4.7,0-11.2-0.5-15.4-2.8c-5-2.7-4.5-7.9,0.2-10.7c8-4.8,21.4-1.3,26.7-10.8
		c2.7-4.9,0.8-11,3.3-16.3c2.8-6,7.2-11.1,10.8-16.6c7.6-11.5,14.3-23.5,20.8-35.6c6-11.2,12.8-18.3,23.6-24.9
		c11.4-6.9,23.8-11.9,35.1-19c3.6-2.2,7.9-5.1,9.7-9c1.9-4.1-1.1-8.6-1.9-13c-0.7-4.3-2.4-10.9-4.5-14.8c-1.7-3.3-3.3-2.9-7-2.5
		c-6.8,0.8-14.2,4.1-21.1,3.7c-5.2-0.3-5.1-4.9-9.2-7.5c-4.3-2.8-6.5-2.3-7.2-8.3c-0.4-3.8,0-7.2,0.5-10.9c0.5-3.2,0-5.5-0.5-8.8
		c-12.8,15.1-22.5,32.7-33.4,49.2c-3.7,5.6-7.5,11.2-11.2,16.8c-2.8,4.3-8.2,17-14.6,9.4c-3.4-4,5.2-13,7.7-16.9
		c5-7.8,10-15.5,15-23.3c8.3-12.8,16.6-25.8,25.3-38.4c3.8-5.5,2.8-11.5,8-16.7c3.5-3.5,7.4-5.9,10.2-10.1c3-4.6,5-9.4,7.5-14.2
		c1.4-2.7,2.4-6.2,3.9-8.8c2.5-4.3,7.7-3.9,9.3-9.1c0.7-2.3,0.3-4.8,1.6-7c1.5-2.5,4.1-3,6.2-4.7c5.2-4,9-11.5,12.5-16.9
		c15.7-24.1,31.6-48.2,47.6-72.1c8-12,16.1-24,24.2-36c3.8-5.6,7.9-11.2,11.5-17c2.5-4,5.6-11.5,11.3-6.3c5,4.6-3,12-5.7,16.1
		c-4.4,6.8-8.9,13.6-13.3,20.4c-8.5,12.9-17,25.9-25.5,38.8c-16,24.3-32.1,48.5-48.2,72.6c20.3,2.4,22.1,25.7,13.7,40.4
		c4.8,0.4,8.3,7.6,10.6,11.1c4.3,6.5,8.3,13.5,10.5,21c2.5,8.7,1.9,17.9,3.8,26.8c0.8,3.6,2.2,6.4,3.6,9.8c1.5,3.8,0.1,6.6,0.8,10.3
		c0.7,3.7,2.6,7.2,3.4,11c0.9,4.4,1.5,8.9,1.9,13.4c0.5,6.8,0,13.5,0.2,20.3c0.1,4.7-0.5,14.5,2.5,18.6c1.3,1.9,0.6,1.4,3.2,1.1
		c3.6-0.4,6.9-3.2,9.8-5c3.2-2.1,6.3-3.8,9.9-5.2c2.9-1.1,7.5-2,9.5-4.6c1.6-2.1,1.2-4.5,3.4-6.8c1.9-2.1,4.7-4.9,7.1-6.3
		c7.6-4.5,12.8,4.8,15.7,10.6c3.6,7.1,9.2,12.1,13.6,18.6c2.5,3.8,9,14.5,5.6,18.9c-4.8,6.4-11.9-0.1-15.2-3.7
		c-8.6-9.2-22.5-12.6-33.3-5.8c-12.1,7.6-20.2,26.6-36.8,22.5c-9-2.2-13-7.8-15.8-16.1c-3.4-10-6.9-20-10.2-30
		c-9.7,4.6-19.4,9.4-29.1,14.2c-8.4,4.2-17.6,7.8-25.6,12.8c-13.2,8.1-20.6,20.8-29.6,33.2c-3.7,5.1-12.6,13-13.2,19.4
		c-0.6,7.4,4.8,15.2,5.5,22.5c0.6,5.8-3.4,8.8-9.3,9c-4.9,0.1-9.6-1.5-14.4-1.5C112.6,491.8,107.4,493.4,102.1,493.4z M219.4,344.4
		c4.8,2.1-8.8,12.8-11,14.1c-8.6,5.4-18,9.5-26.9,14.3c-7.7,4.1-16.3,8.7-22.3,15.2c-6.4,6.9-10.1,16.4-14.7,24.5
		c-4.9,8.8-10,17.5-15.6,25.8c-5.6,8.4-11.2,14.8-11.9,25.2c-0.6,9.4-7.6,13.4-16.1,15.2c-3.1,0.6-19.3,2-15.1,8.7
		c3,4.8,17.1,4,21.5,3.5c6.4-0.7,11.3-1.4,17.8-0.5c3.7,0.5,10.9,2.2,13.5-1.6c-7.4,2.3-16-0.2-23.6,0c-9.6,0.2-18.8,1.3-28.1-2.3
		c0.3-3.4,4.9-1.2,7.4-0.9c5.1,0.5,10.2,0.6,15.3,0.6c9.9,0,20,0,29.8-1.5c-1.8-6.3-4.3-13.3-5.3-19.8c-1-6.7,3.4-10.3,7.1-15.2
		c4.8-6.3,9.4-12.9,14-19.3c3.5-4.9,6.9-11.1,11.5-15.1c7.2-6.4,16.3-10.6,25-14.8c14.5-7,28.7-14.4,43.3-21.3
		c2.5,7.7,5,15.3,7.6,22.9c2.4,7,3.7,16.2,10.1,20.8c5.2,3.7,12.7,5.3,18.6,2.4c6.3-3.1,10.9-10.3,16-15c11.1-10.2,23.3-13.4,37-5.7
		c4.2,2.3,8.6,9.4,13,10.6c10.3,2.7,4.8-9.2,2.5-13.8c-3.5-7-9.9-12-13.9-18.8c-2.6-4.4-6.4-16.6-13.6-14c-3.9,1.4-8.1,7.3-9.6,10.4
		c-3.4,7.3-13.6,8.2-20.2,12.4c-3.1,2-11,8.4-15.5,6.4c-3.8-1.7-3.8-11.9-4.1-15.2c-1.4-15.7,1.2-31.8-4-47c-1.3-3.9-1.7-5.1-1.7-9
		c0-3.8-1.1-5.1-2.5-8.7c-3.7-9-2.8-19.2-4.6-28.7c-1.6-8.8-5.9-16.8-10.7-24.2c-2.5-3.7-6.5-12.7-11.8-10.1c-1.6-1.9-0.4-3.2,2-3.1
		c-3-1.3,1.8-8.9,2.5-11.6c1.2-4.9,1.2-10.1-0.6-14.8c-3.2-8.4-10.7-11.7-19.2-11.9c30-44.8,59.7-89.9,89.2-135
		c1.8-2.8,9-9.9,6.2-13.1c-4-4.4-7.7,5.2-9.4,7.9c-8.4,12.6-17,25-25.4,37.5c-17.1,25.5-34.5,51-51,77c-4.3,6.8-8.6,13.6-13.4,20
		c-3.5,4.7-10.2,7.4-11.6,13c-0.8,3.1-0.6,5.6-3.1,8c-2,2-5.3,2.3-6.9,4.8c-1.7,2.7-2.7,7.1-2,10.2c-0.4-0.6-1.3-0.9-1.8-1.5
		c-3,3.9-4.5,9.5-7.2,13.7c-3,4.7-6.9,7.4-10.8,11.1c-2.8,2.7-4.4,5.7-5.2,9.4c-0.5,2.4,0.2,2.8-1.6,5.5c-0.5,0.7-1,1.4-1.5,2.1
		c-9.1,13.1-17.7,26.6-26.4,40c-4.7,7.2-9.3,14.5-14,21.7c-1.8,2.8-9.8,11.9-6.8,14.1c4.7,3.6,8.2-6.4,10.3-9.7
		c3.8-5.8,7.7-11.6,11.5-17.4c11.8-17.9,22.3-36.9,36.7-52.9c0.2,3.4,0.7,6.6,1.3,10c2.3-2.3,5.9-4.3,9.3-4.1
		c-1.1-2.3-2.6-5.1-2.7-7.6c-0.2-2.8,1.5-4.1,2.1-6.6c0.6-2.8-1.8-4.7-0.5-7.4c0.2,0.2,0.4,0.4,0.5,0.6c3.4-5.3,6.7-10.6,9.8-16.1
		c2.5-4.4,4.9-8.5,9.8-10.4c-1.2,3.6-3.8,6.5-5,9.9c-1.4,3.8-1.2,0.7,0.7,4.3c0.7,1.3,1,2.8,1.6,4.2c2.3,5.8,8.3,13.6,8.3,20.1
		c0,6.8-7.3,13.3-13.6,14.5c-4.4,0.9-6.8-2.7-10.8-2.3c-4.8,0.5-9.7,4-10.3,8.6c-0.5,3.4-0.7,9.1,1.7,11.7c0.9,1,3.3,1.3,4.5,2.1
		c2.2,1.4,3,3.7,4.8,5.2c2.9,2.5,4.5,1.9,8.8,1.1c5.3-0.9,10.6-2.4,15.9-2.9c8.5-0.8,8.2,3.7,10.6,10.8
		C215.5,328,220.4,343.8,219.4,344.4z M181.6,286.7c4.4,2.1,5.9,3.2,10.4,0.9c3.3-1.7,5.6-3,7.4-6.3c3.6-6.8-3-15-5.6-21.3
		c-0.9-2-1.7-8-4.7-8.1c-1.2,0-8.3,11.7-8.8,13.5c-0.4,1.8,0.5,2.4,0.6,4.3c0.1,2.2-1.7,3.4-2.2,5.4
		C177.6,279.3,179.7,283.2,181.6,286.7C182.4,287.1,180.1,284.1,181.6,286.7z"/>
	<path id="XMLID_5_" d="M228.9,251.3c9-14.7,5.9-38.1-14.7-39c28.1-42,55.9-84.1,83.6-126.4c3-4.7,6.2-9.3,9.3-13.9
		c1.9-2.7,4.4-9.8-2.2-9.2c-3,0.3-4.5,4.8-5.8,6.9c-3.2,5.1-6.7,10-10.1,15c-13.8,20.4-27.5,40.8-41.1,61.3
		c-13.2,19.9-25.6,40.7-39.7,59.9c-2.8,3.8-5.5,5.9-9,8.6c-4.3,3.3-2.4,7.6-4.9,11.6c-2,3.3-6.5,3.5-8.5,6.8c-1.3,2.1-2.2,6.4-3,7.9
		c-2.9,5.5-5.9,11.9-9.7,17c-5.2,6.9-12.7,9.4-14.4,18.7c-0.6,3.1-1.6,5-3.7,8c-3.4,5-6.6,10-10,15c-7,10.6-13.9,21.2-20.8,31.9
		c-3.7,5.7-7.3,11.4-11,17.1c-1.4,2.1-6.6,7.5-6,10.2c0.7,3.2,5.2,3.5,7.4,2c2.6-1.8,4.9-7.9,6.6-10.6c14.8-22.3,28-47.4,45.8-67.4
		c0.2,3.4,1.2,6.7,1.6,10.1c3.7-2.5,7.6-4.8,12.1-5.3c-1.7-3-4.1-7.3-3.8-10.8c0,0.1,4.3-12.1,1.1-10.1c3.3-2,6.4-9.8,8.4-13.1
		c2.3-4,4.7-11,9.2-13.1c-1.4,3.8-4,7.1-6.3,10.4c4.1,1,6.8,11.6,8.5,15.2c2.1,4.6,4.9,8.9,3.4,13.7c-1.6,4.9-8,10.7-13.6,10.7
		c-6.6,0-8.3-6.3-15.5-1.3c-5.3,3.7-6.2,11.9-4.4,17.8c0.9,3,1.9,3,4.4,4.3c3.3,1.8,4.4,4.1,6.9,6.5c7.5,7.4,28-10.2,32.9,1.4
		c3.1,7.3,3.8,15.4,6.5,22.7c2.5,6.7-5,12.1-10.3,15.4c-16.7,10.4-40,16.5-52.1,32.9c-5.6,7.6-9.5,16.7-14.2,25
		c-5.3,9.3-10.9,18.5-17,27.3c-2.4,3.5-5,6.9-6.8,10.8c-2.2,4.8-0.8,9.4-2.3,14.1c-2.3,7-10.4,9.1-16.9,10.3
		c-4.2,0.7-13.7,1.4-14.4,6.9c-0.9,7,13.9,7.4,18.1,7.4c5,0,9.7-1.6,14.6-1.7c3-0.1,6.1,0.7,9.1,1.1c5.4,0.7,14.3,1.7,14.5-6
		c-8.9,1.6-18.3,1.5-27.3,1.6c-8,0.1-18.3,1.1-26-1.9c10.6,4.1,21.2,1.8,32.1,2.3c4.5,0.2,15.7,2.8,19.6-0.4
		c4.6-3.7-3.6-18.3-4-23.6c-0.5-6.9,6.6-12.8,10.4-18c8-10.9,15-24.4,25.9-32.5c7.8-5.9,16.3-9.6,25-14
		c12.6-6.3,25.2-12.5,37.9-18.6c3.1,9.6,6.3,19.1,9.7,28.6c2.8,8.1,4.8,14,13.5,17.2c15.1,5.6,22.6-8.6,32.5-17.1
		c10.7-9.3,22.5-10.8,34.9-3.3c5.1,3.1,8.5,10.8,15.1,10.2c7.9-0.8,4.2-7.9,2.1-12.6c-3.1-6.9-7.9-11.8-12.4-17.7
		c-4.3-5.6-6-15.2-13.1-18.4c-4.8-2.1-10.4,3.6-13.3,7.2c-1.8,2.3-1.2,4.4-3,6.5c-2.3,2.7-7,3.6-10.3,4.8c-6.7,2.6-12.1,8.2-19,10
		c-6.7,1.7-6.2-7.3-6.7-12.4c-1.7-16.1,1.2-32.7-4.1-48.4c-1.2-3.6-1.7-5.3-1.7-9c0-3.8-1.2-5.4-2.7-9c-4.1-9.7-2.6-20.9-5-31.1
		c-2-8.4-6.4-16.2-11.2-23.3c-2.8-4.2-6.3-12.1-12.4-9.2"/>
	<path id="XMLID_93_" d="M313.7,160.4c-10.7-4.8-17.1,16.6-5.9,18.6C316.4,180.6,321.6,163.9,313.7,160.4
		C313.9,160.4,315.5,161.2,313.7,160.4C304.2,156.1,315.9,161.3,313.7,160.4z"/>
	<path id="XMLID_23_" d="M309,178c-9.7,0-6.3-19,2.9-16.9C319.8,162.9,316.2,178,309,178z"/>
	<path id="XMLID_34_" d="M384.1,181.4c-6.7,0-14.7-3.1-21.3-4.5c-2.7-0.6-5.5-0.9-8.2-1.4c-6-1.1-3.6-6.3-4.3-11.4
		c-0.9-6.1-5.4-9.1-8.5-14c-2.4-3.9-1-8.9-0.2-13.2c1.2-6.3,2.5-8.9,8.8-10.2c6.7-1.4,6.5-6.1,5.3-12.2c4.7,8.4,8.5,14.9,18.3,16.9
		c6.2,1.2,17.5,0.7,22.1,6.1c4.2,4.9,0.2,14.8-0.5,20.1C394.5,164.5,394.2,181.4,384.1,181.4z M361.1,136.6
		c-5.1,0-5.7,11.1-6.4,14.5c-1.1,5.7-2.2,12,2.9,16.1c5.9,4.7,14.9,3.8,19-2.6c2.2-3.5,3.2-8.2,4.2-12.1c0.7-2.9,3.1-11.8-2.6-11.8
		c-6.6,0-5.7,13.8-7,17.5c-2.7,7.7-9.8,5.3-9.2-2.5C362.2,152.3,369.6,136.6,361.1,136.6z"/>
	<path id="XMLID_31_" d="M314,195.4c-9.4,0-15.8-3.2-23.8-7.3c-6.8-3.5-11.6,0.1-18.6,1.2c2.2-2.4,6.1-4.6,7.3-7.6
		c1.4-3.5-0.8-6.7-2-9.9c-2.6-6.8-1.5-13.5,3.3-19.2c9.9-12,26.8-12.2,40.5-7.6c12.6,4.2,28.4,14.8,24.2,30.3
		C341.2,188.9,327.3,195.4,314,195.4z M310.4,153.5c-11.6,0-19.5,14.9-13.7,24.9c3.3,5.6,7.4,4.1,12.6,5.5c4.3,1.1,6.6,9.6,11.4,8.1
		c6.8-2-1-6.7-1.6-9c-0.9-3.3,3.7-7.3,4.7-10.9C326.1,163.3,319.7,153.5,310.4,153.5z"/>
	<path id="XMLID_25_" d="M445.5,212.4c-5.9,0-12.2-2.2-17.8-3.5c-3.8-0.8-7.6-1.7-11.4-2.3c-1.8-0.3-4.2-0.1-5.4-1.5
		c-1.3-1.6-0.8-5.8-1.1-7.8c-0.4-2.8-1-4.9-2.4-7.4c-1.5-2.7-3.3-5.3-5.6-7.4c-3.3-3.1-4.5-3.2-3.8-8c0.7-4.6,0.6-13.4,3.6-17
		c3.3-3.8,10.7-0.5,14.8,0.6c5.9,1.5,12.6,4.6,18.8,3.8c4.6-0.6,10.2-3.6,14-6.2c-0.6,4.5-0.9,7.6,3.2,10c6.4,3.8,6.6,7.4,4.9,14.8
		c-1.4,6.2-2.6,12.1-3.6,18.4C453,203.6,451.8,212.3,445.5,212.4z M426.5,177.1c-4.6,4.3-10.5,8.4-13.4,14.2c-3.2,6.6,2.1,7,7.4,8.2
		c3.1,0.7,11.2,4.5,11.9-1.1c0.6-4.9-7.2-5.4-10.3-5.8c4.5-4.3,10-8.3,13.2-13.7s0.4-6.7-4.7-8.2c-3.3-1-11.1-4.6-13.8-0.9
		C413.4,174.9,423.7,176.6,426.5,177.1C425.5,178.1,420.6,176,426.5,177.1z"/>
	<path id="XMLID_106_" d="M481.8,180.1c-0.6-16.6,6.5-55.5,30.9-48.3c-1-14-24.7-18.6-35.5-19.5c-22.3-1.8-44,6.1-66.3,5.4
		c-20.6-0.6-36.7-8.8-52.6-21.4c-13.8-11-28.7-24.4-47.2-25.4c-0.6,14.5-5.3,28.7-13.6,40.6c-4.2,5.9-9.2,11.2-14.8,15.7
		c-4.2,3.4-10.9,5.4-14.1,9.6c-3,3.9-3.5,10-4.6,14.6c-1.5,6.1-4.2,11.6-7.5,16.9c-7.2,11.4-16.7,24.1-29.2,30.2
		c21.2-1.8,37.6,17.2,53,28.8c18.4,13.8,37.3,19.5,60.3,16.7c10.2-1.2,20.5-3.3,30.8-2.4c10,0.9,18.9,5,27.2,10.4
		c16.7,10.8,31.8,26.1,52,30c-9.6-16.3-2.1-36.4,9.2-49.7c6.4-7.5,14.1-14.1,18.6-23C483,200.3,482.2,190,481.8,180.1
		C481.2,164.5,482.1,188.8,481.8,180.1z M460,191.6c-1.5,6.9-1.6,15.6-6.1,21.4c-5.9,7.6-16.8,3.4-24.6,1.7
		c-4.8-1-13.3-4.6-18.1-3.3c-3.3,0.9-3.8,3.5-5.3,6.3c-2.4,4.7-5.4,6.8-9.4,10c-4.3,3.4-4.6,5.5-4.1,10.8c1.2,11.8-6,6.4-11,1.1
		c-6.9-7.3-16-6.7-25.2-9.2c-8.8-2.4-18.1-8.9-22.2-17.2c-0.9-1.8-3.8-14.7-4.5-14.8c-3.6-0.8-7.8,1.4-11.3,2
		c-4.2,0.8-8.3,0.4-12.5-0.4c-4.7-0.8-9.6-2.1-13.9-4.2c-4-2-6.5-4.6-11.2-3.8c-3.5,0.6-17.9,8.4-19,1.5c-0.6-3.9,7.5-8.7,9.4-11.5
		c3.5-5.3-1.7-13.1-1.1-19.3c0.9-9.1,7-16.9,14.7-21.4c15.2-8.8,36-6.4,50,3.6c1.5-7,1.2-18.8,8.2-22.8c4.9-2.8,6.7-1.5,6.6-8
		c0-4.3-4.3-13.5-1.1-17.3c3.8-4.5,7.2,4.5,8.6,7.2c3,5.8,5.4,12.7,9.6,17.8c4.6,5.5,11.5,4.9,18,6c5.1,0.8,12,2.1,15.6,6.3
		c3.8,4.4,2.6,11,1.5,16.2c6.5-0.5,12.8,1.7,19,3.2c4.2,1.1,9.6,3.5,13.9,3c4.8-0.5,19.4-15.7,20.4-5.4c0.5,5.3-1.7,8.6,3.2,12
		c4.9,3.3,6.2,6.5,5.5,12.6c-0.8,7.3-3.6,14.4-5.1,21.6c0.8-4,1.7-8,2.5-11.9C460.9,187.3,460.4,189.5,460,191.6
		C457,205.4,464.6,170,460,191.6z"/>
	<path id="XMLID_26_" d="M387.3,237.7c-2.8-2.2-4.7-6-7.7-7.8c-3.5-2.2-8-1.3-11.9-1.8c-9.7-1.1-19.5-6-25.8-13.5
		c-4-4.7-10.7-14.1-4.8-19.1c3.6-3,6.2-4.9,9.1-8.9c2-2.8,3.1-5.1,6.4-5.4c3.1-0.3,7.5,1.9,10.6,2.6c5.6,1.2,11.1,2.4,16.7,3.6
		c4.8,1,7.4,0.8,11.7-1c2.2-0.9,1.5-1.3,3.7-0.6c1.7,0.6,3.7,3.8,4.6,5.3c5.3,7.8,6.7,19.3-0.2,26.7c-3,3.3-7.8,4.2-10.9,7.4
		C385,229.1,388.4,233,387.3,237.7C386.2,236.8,387.5,236.7,387.3,237.7z M371.2,194.2c-6.4,0-8.8,15.9-7.2,20.9
		c2.4,7.2,7.3,0.2,8.1-3.7c0.7-3.5,5.4-15.6,0.1-17.1c5,0.3,5.9-6.9,1-8C367.3,185,367,194.2,371.2,194.2z"/>
	<path id="XMLID_111_" d="M227.2,198.7C227.3,198.6,227.2,198.7,227.2,198.7L227.2,198.7z"/>
</g>
</svg>
